<?xml version="1.0" encoding="UTF-8" standalone="no"?>
<!-- Uploaded to: SVG Repo, www.svgrepo.com, Generator: SVG Repo Mixer Tools -->

<svg
   fill="#000000"
   version="1.1"
   id="Capa_1"
   width="1312.4301"
   height="800.06555"
   viewBox="0 0 315.23586 192.16975"
   xml:space="preserve"
   sodipodi:docname="painting-painting-svgrepo-com.svg"
   inkscape:version="1.1.2 (0a00cf5339, 2022-02-04)"
   xmlns:inkscape="http://www.inkscape.org/namespaces/inkscape"
   xmlns:sodipodi="http://sodipodi.sourceforge.net/DTD/sodipodi-0.dtd"
   xmlns="http://www.w3.org/2000/svg"
   xmlns:svg="http://www.w3.org/2000/svg"><defs
   id="defs31"><linearGradient
   id="linearGradient1497"
   inkscape:swatch="solid"><stop
     style="stop-color:#000000;stop-opacity:1;"
     offset="0"
     id="stop1495" /></linearGradient>
		
		
		
		
		
		
		
		
		
		
		
	</defs><sodipodi:namedview
   id="namedview29"
   pagecolor="#ffffff"
   bordercolor="#666666"
   borderopacity="1.0"
   inkscape:pageshadow="2"
   inkscape:pageopacity="0.0"
   inkscape:pagecheckerboard="0"
   showgrid="false"
   inkscape:zoom="0.84065074"
   inkscape:cx="629.86919"
   inkscape:cy="468.08976"
   inkscape:window-width="2560"
   inkscape:window-height="1359"
   inkscape:window-x="0"
   inkscape:window-y="44"
   inkscape:window-maximized="1"
   inkscape:current-layer="g26" />
<g
   id="g26"
   transform="translate(179.33943,-1.0508249)">
	
<g
   style="fill:#000000"
   id="g1584"
   transform="matrix(0.25330577,0,0,0.25330577,-86.567776,32.289517)"><g
     id="g1572">
	<g
   id="g1570">
		<g
   id="g1568">
			<path
   d="M 478.83,72.017 H 331.707 L 262.297,2.608 c -3.478,-3.477 -9.115,-3.477 -12.593,0 L 180.295,72.017 H 33.17 c -4.919,0 -8.904,3.987 -8.904,8.904 v 422.174 c 0,4.917 3.985,8.904 8.904,8.904 h 445.66 c 4.919,0 8.904,-3.987 8.904,-8.904 V 80.921 c 0,-4.917 -3.987,-8.904 -8.904,-8.904 z M 256,21.496 306.521,72.017 H 205.479 Z m 201.333,68.329 -22.78,22.781 H 77.448 L 54.667,89.825 Z m -27.996,40.589 v 0 323.19 H 82.663 V 130.414 Z M 42.074,102.418 64.855,125.199 V 458.82 L 42.074,481.6 Z m 12.593,391.774 22.781,-22.78 h 357.106 l 22.78,22.78 z M 469.924,481.6 447.144,458.819 v -333.62 l 22.78,-22.78 z"
   id="path1564" />
			<path
   d="m 131.518,425.394 h 248.963 c 4.919,0 8.904,-3.987 8.904,-8.904 V 167.527 c 0,-4.917 -3.985,-8.904 -8.904,-8.904 H 131.518 c -4.919,0 -8.904,3.987 -8.904,8.904 V 416.49 c 0,4.917 3.986,8.904 8.904,8.904 z m 8.904,-248.963 H 371.577 V 407.586 H 140.422 Z"
   id="path1566" />
		</g>
	</g>
</g></g></g><g
   inkscape:groupmode="layer"
   id="layer1"
   inkscape:label="Layer 1" />
</svg>
