<?xml version="1.0" encoding="UTF-8" standalone="no"?>
<!-- Uploaded to: SVG Repo, www.svgrepo.com, Generator: SVG Repo Mixer Tools -->

<svg
   fill="#000000"
   version="1.1"
   id="Capa_1"
   width="1312.4301"
   height="800.06555"
   viewBox="0 0 315.23586 192.16975"
   xml:space="preserve"
   sodipodi:docname="configure-able.svg"
   inkscape:version="1.1.2 (0a00cf5339, 2022-02-04)"
   xmlns:inkscape="http://www.inkscape.org/namespaces/inkscape"
   xmlns:sodipodi="http://sodipodi.sourceforge.net/DTD/sodipodi-0.dtd"
   xmlns="http://www.w3.org/2000/svg"
   xmlns:svg="http://www.w3.org/2000/svg"><defs
   id="defs31"><linearGradient
   id="linearGradient1497"
   inkscape:swatch="solid"><stop
     style="stop-color:#000000;stop-opacity:1;"
     offset="0"
     id="stop1495" /></linearGradient>
		
		
		
		
		
		
		
		
		
		
		
	</defs><sodipodi:namedview
   id="namedview29"
   pagecolor="#ffffff"
   bordercolor="#666666"
   borderopacity="1.0"
   inkscape:pageshadow="2"
   inkscape:pageopacity="0.0"
   inkscape:pagecheckerboard="0"
   showgrid="false"
   inkscape:zoom="0.84065074"
   inkscape:cx="540.65259"
   inkscape:cy="525.18838"
   inkscape:window-width="2560"
   inkscape:window-height="1359"
   inkscape:window-x="0"
   inkscape:window-y="44"
   inkscape:window-maximized="1"
   inkscape:current-layer="g26" />
<g
   id="g26"
   transform="translate(140.95415,0.01473859)">
	<g
   id="g938"
   transform="translate(-57.304727,6.6651382)"><path
     d="m 54.89209,50.546868 -39.824894,5.172017 c -1.573188,0.204308 -2.679417,1.639802 -2.475003,3.213803 l 1.108304,8.534022 c 0.204309,1.573189 1.640614,2.679311 3.213803,2.475003 l 39.824893,-5.172017 c 1.573188,-0.204307 2.679312,-1.640613 2.475004,-3.213801 L 58.105893,53.021872 C 57.902291,51.447767 56.466091,50.342455 54.89209,50.546868 Z m -1.736099,8.903422 -34.135275,4.433111 -0.369399,-2.844403 34.135274,-4.433112 z"
     id="path2"
     style="fill-opacity:1;fill-rule:evenodd;stroke:none;stroke-width:1.86785;stroke-miterlimit:4;stroke-dasharray:none;stroke-opacity:1" /><path
     d="M 53.43424,153.71466 H 13.274909 c -1.5864,0 -2.86829,1.28025 -2.86829,2.86911 v 8.60569 c 0,1.58558 1.28189,2.86829 2.86829,2.86829 H 53.43424 c 1.5864,0 2.868289,-1.28271 2.868289,-2.86829 v -8.60569 c 8.19e-4,-1.58886 -1.281071,-2.86911 -2.868289,-2.86911 z m -2.86829,8.60569 H 16.144017 v -2.86911 H 50.56595 Z"
     id="path4"
     style="fill-opacity:1;fill-rule:evenodd;stroke:none;stroke-width:1.86785;stroke-miterlimit:4;stroke-dasharray:none;stroke-opacity:1" /><path
     d="m 45.403117,69.39998 c -1.577022,-0.172246 -2.990604,0.963696 -3.162851,2.540716 l -8.342913,76.384614 c -0.172245,1.57702 0.962883,2.99052 2.539903,3.16276 l 8.554812,0.93438 c 1.577834,0.17233 2.990516,-0.96288 3.162762,-2.5399 l 8.343002,-76.385432 c 0.172246,-1.57702 -0.961979,-2.991239 -2.539814,-3.163575 l -8.554812,-0.934377 z m -2.639523,77.00838 -2.851332,-0.31143 7.720054,-70.681953 2.851333,0.31143 z"
     id="path6"
     style="fill-opacity:1;fill-rule:evenodd;stroke:none;stroke-width:1.86785;stroke-miterlimit:4;stroke-dasharray:none;stroke-opacity:1" /><path
     d="m 22.224809,152.52104 c 1.557141,0.30753 3.062464,-0.70268 3.369832,-2.25901 L 40.482291,74.879186 C 40.789658,73.322848 39.78123,71.81704 38.224089,71.509514 L 29.781473,69.84215 c -1.556338,-0.307368 -3.062306,0.701862 -3.369672,2.258201 L 11.523991,147.484 c -0.307367,1.55634 0.701705,3.06311 2.258044,3.37047 l 8.442616,1.66737 z m 9.259131,-76.49528 2.813938,0.555735 -13.77618,69.754975 -2.813937,-0.55574 z"
     id="path8"
     style="fill-opacity:1;fill-rule:evenodd;stroke:none;stroke-width:1.86785;stroke-miterlimit:4;stroke-dasharray:none;stroke-opacity:1" /><path
     d="m 133.24208,48.903625 -39.851566,4.968893 c -1.573393,0.196179 -2.687744,1.626113 -2.49136,3.201135 l 1.064754,8.539564 c 0.196278,1.574211 1.627738,2.687546 3.201139,2.491366 l 39.851573,-4.968894 c 1.57339,-0.196179 2.68763,-1.626924 2.49136,-3.201134 l -1.06476,-8.539564 c -0.19638,-1.575024 -1.62855,-2.687445 -3.20114,-2.491366 z m -1.7823,8.89455 -34.158258,4.259022 -0.354885,-2.84625 34.158253,-4.259023 z"
     id="path10"
     style="fill-opacity:1;fill-rule:evenodd;stroke:none;stroke-width:1.86785;stroke-miterlimit:4;stroke-dasharray:none;stroke-opacity:1" /><path
     d="M 133.75372,153.71466 H 93.59357 c -1.585581,0 -2.86829,1.28025 -2.86829,2.86911 v 8.60569 c 0,1.58558 1.282709,2.86829 2.86829,2.86829 h 40.16015 c 1.58558,0 2.86829,-1.28271 2.86829,-2.86829 v -8.60569 c 0,-1.58886 -1.28353,-2.86911 -2.86829,-2.86911 z m -2.86911,8.60569 H 96.46186 v -2.86911 h 34.42275 z"
     id="path12"
     style="fill-opacity:1;fill-rule:evenodd;stroke:none;stroke-width:1.86785;stroke-miterlimit:4;stroke-dasharray:none;stroke-opacity:1" /><path
     d="m 121.39582,152.72427 c 1.5644,0.25831 3.03894,-0.79828 3.2974,-2.36349 l 12.51837,-75.8123 c 0.25845,-1.565204 -0.79827,-3.038942 -2.36268,-3.297262 l -8.49152,-1.402148 c -1.56439,-0.258317 -3.0388,0.797471 -3.29725,2.362676 l -12.51851,75.813114 c -0.25845,1.5652 0.79814,3.03974 2.36254,3.29807 l 8.49152,1.40215 z m 6.85776,-76.747837 2.82997,0.467295 -11.58378,70.152372 -2.82997,-0.4673 z"
     id="path14"
     style="fill-opacity:1;fill-rule:evenodd;stroke:none;stroke-width:1.86785;stroke-miterlimit:4;stroke-dasharray:none;stroke-opacity:1" /><path
     d="m 105.91026,152.48164 c 1.58087,0.13239 2.96615,-1.03881 3.09853,-2.61967 l 6.41234,-76.570867 c 0.13239,-1.580866 -1.03887,-2.965329 -2.61973,-3.097716 l -8.57568,-0.718159 c -1.58005,-0.132321 -2.96525,1.038054 -3.09764,2.618921 l -6.412406,76.571671 c -0.132388,1.58087 1.038797,2.96615 2.618853,3.09847 l 8.575673,0.71816 z m 0.69502,-77.050479 2.8591,0.23943 -5.93361,70.854299 -2.85909,-0.23944 z"
     id="path16"
     style="fill-opacity:1;fill-rule:evenodd;stroke:none;stroke-width:1.86785;stroke-miterlimit:4;stroke-dasharray:none;stroke-opacity:1" /><path
     d="m 81.530538,105.59486 c -7.830265,-2.3408 -16.100921,2.12166 -18.44243,9.95428 l -7.801045,26.09538 c -0.454375,1.51994 0.405637,3.11583 1.926353,3.57043 l 22.897868,6.84518 c 1.519157,0.45414 3.115511,-0.40748 3.569892,-1.92738 l 7.801048,-26.09539 c 2.342057,-7.83159 -2.126127,-16.1031 -9.951686,-18.4425 z m -2.524068,40.1467 -17.400849,-5.20186 6.979747,-23.34805 c 1.434635,-4.79902 6.503869,-7.53494 11.302883,-6.10031 4.797449,1.43416 7.533386,6.50339 6.098745,11.30241 l -6.979743,23.34805 z"
     id="path18"
     style="fill-opacity:1;fill-rule:evenodd;stroke:none;stroke-width:1.86785;stroke-miterlimit:4;stroke-dasharray:none;stroke-opacity:1" /><path
     d="m 70.789424,70.700595 c -7.925888,1.99316 -12.750389,10.059341 -10.757229,17.985229 l 2.914479,11.589556 c 0.386894,1.53849 1.942111,2.47004 3.481405,2.08294 L 89.60558,96.529764 c 1.537709,-0.386692 2.468857,-1.943497 2.081964,-3.481995 L 88.773064,81.458221 C 86.780699,73.532134 78.710549,68.708632 70.789424,70.700595 Z m 14.635234,20.964537 -17.61335,4.429314 -2.214954,-8.807867 c -1.221569,-4.857623 1.735286,-9.801251 6.592909,-11.022821 4.856035,-1.221171 9.799663,1.735686 11.02123,6.593309 l 2.214959,8.807865 z"
     id="path20"
     style="fill-opacity:1;fill-rule:evenodd;stroke:none;stroke-width:1.86785;stroke-miterlimit:4;stroke-dasharray:none;stroke-opacity:1" /><path
     d="M 14.213796,51.752129 134.56624,46.235547 c 1.30998,-0.06004 2.40996,-1.001191 2.67724,-2.285206 0.26564,-1.28394 -0.37417,-2.585376 -1.5526,-3.159048 l -61.0275,-29.74902 c -0.867402,-0.420764 -1.895759,-0.38428 -2.720252,0.113215 L 12.616554,46.421166 c -1.131187,0.671343 -1.65818,2.027901 -1.282435,3.288997 0.380502,1.2576 1.564788,2.102237 2.879677,2.041966 z M 73.543681,16.880448 123.06483,41.019314 25.399129,45.496006 Z"
     id="path22"
     style="fill-opacity:1;fill-rule:evenodd;stroke:none;stroke-width:1.86785;stroke-miterlimit:4;stroke-dasharray:none;stroke-opacity:1" /></g>
</g>
</svg>
