<?xml version="1.0" encoding="UTF-8" standalone="no"?>
<!-- Uploaded to: SVG Repo, www.svgrepo.com, Generator: SVG Repo Mixer Tools -->

<svg
   fill="#000000"
   version="1.1"
   id="Capa_1"
   width="1312.4301"
   height="800.06555"
   viewBox="0 0 315.23586 192.16975"
   xml:space="preserve"
   sodipodi:docname="in-configure.svg"
   inkscape:version="1.1.2 (0a00cf5339, 2022-02-04)"
   xmlns:inkscape="http://www.inkscape.org/namespaces/inkscape"
   xmlns:sodipodi="http://sodipodi.sourceforge.net/DTD/sodipodi-0.dtd"
   xmlns="http://www.w3.org/2000/svg"
   xmlns:svg="http://www.w3.org/2000/svg"><defs
   id="defs31"><linearGradient
   id="linearGradient1497"
   inkscape:swatch="solid"><stop
     style="stop-color:#000000;stop-opacity:1;"
     offset="0"
     id="stop1495" /></linearGradient>
		
		
		
		
		
		
		
		
		
		
		
	</defs><sodipodi:namedview
   id="namedview29"
   pagecolor="#ffffff"
   bordercolor="#666666"
   borderopacity="1.0"
   inkscape:pageshadow="2"
   inkscape:pageopacity="0.0"
   inkscape:pagecheckerboard="0"
   showgrid="false"
   inkscape:zoom="0.84065074"
   inkscape:cx="629.86919"
   inkscape:cy="468.08976"
   inkscape:window-width="2560"
   inkscape:window-height="1359"
   inkscape:window-x="0"
   inkscape:window-y="44"
   inkscape:window-maximized="1"
   inkscape:current-layer="g26" />
<g
   id="g26"
   transform="translate(179.33943,-1.0508249)">
	
<g
   id="g7619"
   transform="matrix(2.3094734,0,0,2.3094734,-79.458265,30.689008)"
   style="fill:none;stroke:#000000;stroke-opacity:1;stroke-width:1.83201546;stroke-miterlimit:4;stroke-dasharray:none">

<rect
   fill="#656766"
   height="5.2951894"
   width="0.61266971"
   x="24.64126"
   y="27.250271"
   id="rect7589"
   style="fill:none;stroke:#000000;stroke-width:1.83201546;stroke-opacity:1;stroke-miterlimit:4;stroke-dasharray:none"
   ry="0" /><rect
   fill="#656766"
   height="3.4506104"
   width="0.70779353"
   x="24.900661"
   y="49.258232"
   id="rect7589-4"
   style="fill:none;stroke:#000000;stroke-width:1.83201546;stroke-opacity:1;stroke-miterlimit:4;stroke-dasharray:none"
   ry="0" />

<path
   d="m 4.8804454,54.691551 v 0 c 0,-1.02238 0.8288,-1.85117 1.85117,-1.85117 H 44.408095 c 1.02237,0 1.85117,0.8288 1.85117,1.85117 v 0 c 0,1.02237 -0.8288,1.85117 -1.85117,1.85117 H 6.7316154 c -1.02238,0 -1.85117,-0.8288 -1.85117,-1.85117 z"
   fill="#656766"
   id="path7591"
   style="fill:none;stroke:#000000;stroke-opacity:1;stroke-width:1.83201546;stroke-miterlimit:4;stroke-dasharray:none" />

<path
   d="m 34.45771,38.0057 c -0.75983,5.48713 -7.18344,9.762 -8.98546,10.86156 -0.28953,0.17666 -0.64658,0.17711 -0.9362,6.1e-4 -1.79179,-1.09193 -8.15807,-5.32224 -8.98239,-10.76237 -0.48855,-3.22419 1.74665,-6.3756 5.00175,-6.57154 1.77272,-0.10671 3.39489,0.64349 4.44852,1.8865 1.02233,-1.21981 2.59226,-1.96503 4.34012,-1.89159 3.25801,0.13691 5.56095,3.24675 5.11366,6.47683 z"
   fill="#ec6e62"
   id="path7593"
   style="fill:none;stroke:#000000;stroke-opacity:1;stroke-width:1.83201546;stroke-miterlimit:4;stroke-dasharray:none" />

<g
   id="g7617"
   style="fill:none;stroke:#000000;stroke-opacity:1;stroke-width:1.83201546;stroke-miterlimit:4;stroke-dasharray:none">

<path
   d="M 43.38886,1 H 6.61108 C 3.51215,1 0.99997,3.51218 0.99997,6.61111 v 10e-6 c 0,3.09893 2.51218,5.61111 5.61111,5.61111 h 36.77778 c 3.09893,0 5.61111,-2.51218 5.61111,-5.61111 v -10e-6 C 48.99997,3.51218 46.48779,1 43.38886,1 Z"
   fill="#e7e3e6"
   id="path7595"
   style="fill:none;stroke:#000000;stroke-opacity:1;stroke-width:1.83201546;stroke-miterlimit:4;stroke-dasharray:none" />

<g
   id="g7603"
   style="fill:none;stroke:#000000;stroke-opacity:1;stroke-width:1.83201546;stroke-miterlimit:4;stroke-dasharray:none">

<circle
   cx="6.39604"
   cy="6.6111102"
   fill="#ec6e62"
   r="2.08549"
   id="circle7597"
   style="fill:none;stroke:#000000;stroke-opacity:1;stroke-width:1.83201546;stroke-miterlimit:4;stroke-dasharray:none" />

<circle
   cx="11.94505"
   cy="6.6111102"
   fill="#85bd57"
   r="2.08549"
   id="circle7599"
   style="fill:none;stroke:#000000;stroke-opacity:1;stroke-width:1.83201546;stroke-miterlimit:4;stroke-dasharray:none" />

<circle
   cx="17.494061"
   cy="6.6111102"
   fill="#53b1e2"
   r="2.08549"
   id="circle7601"
   style="fill:none;stroke:#000000;stroke-opacity:1;stroke-width:1.83201546;stroke-miterlimit:4;stroke-dasharray:none" />

</g>

<path
   d="M 43.38886,15.65654 H 6.61108 c -3.09893,0 -5.61111,2.51218 -5.61111,5.61111 v 10e-6 c 0,3.09893 2.51218,5.61111 5.61111,5.61111 h 36.77778 c 3.09893,0 5.61111,-2.51218 5.61111,-5.61111 v -10e-6 c 0,-3.09893 -2.51218,-5.61111 -5.61111,-5.61111 z"
   fill="#e7e3e6"
   id="path7605"
   style="fill:none;stroke:#000000;stroke-opacity:1;stroke-width:1.83201546;stroke-miterlimit:4;stroke-dasharray:none" />

<g
   id="g7613"
   style="fill:none;stroke:#000000;stroke-opacity:1;stroke-width:1.83201546;stroke-miterlimit:4;stroke-dasharray:none">

<circle
   cx="6.39604"
   cy="21.267651"
   fill="#ec6e62"
   r="2.08549"
   id="circle7607"
   style="fill:none;stroke:#000000;stroke-opacity:1;stroke-width:1.83201546;stroke-miterlimit:4;stroke-dasharray:none" />

<circle
   cx="11.94505"
   cy="21.267651"
   fill="#85bd57"
   r="2.08549"
   id="circle7609"
   style="fill:none;stroke:#000000;stroke-opacity:1;stroke-width:1.83201546;stroke-miterlimit:4;stroke-dasharray:none" />

<circle
   cx="17.494061"
   cy="21.267651"
   fill="#53b1e2"
   r="2.08549"
   id="circle7611"
   style="fill:none;stroke:#000000;stroke-opacity:1;stroke-width:1.83201546;stroke-miterlimit:4;stroke-dasharray:none" />

</g>

<rect
   fill="#d2d2d2"
   height="3.43431"
   width="36.334419"
   x="6.8327599"
   y="12.22223"
   id="rect7615"
   style="fill:none;stroke:#000000;stroke-opacity:1;stroke-width:1.83201546;stroke-miterlimit:4;stroke-dasharray:none" />

</g>

</g></g><g
   inkscape:groupmode="layer"
   id="layer1"
   inkscape:label="Layer 1" />
</svg>
