<svg preserveAspectRatio="none"  viewBox="0 -0.004795074462890625 254.3125 106.99040985107422" height="136.99040985107422" class="flowchart" xmlns:xlink="http://www.w3.org/1999/xlink" xmlns="http://www.w3.org/2000/svg" width="254.3125" id="m3501ac89cd3d6c5d"><style>#m3501ac89cd3d6c5d{font-family:var(--font-mermaid);font-size:16px;fill:#333;}#m3501ac89cd3d6c5d .error-icon{fill:#552222;}#m3501ac89cd3d6c5d .error-text{fill:#552222;stroke:#552222;}#m3501ac89cd3d6c5d .edge-thickness-normal{stroke-width:1px;}#m3501ac89cd3d6c5d .edge-thickness-thick{stroke-width:3.5px;}#m3501ac89cd3d6c5d .edge-pattern-solid{stroke-dasharray:0;}#m3501ac89cd3d6c5d .edge-thickness-invisible{stroke-width:0;fill:none;}#m3501ac89cd3d6c5d .edge-pattern-dashed{stroke-dasharray:3;}#m3501ac89cd3d6c5d .edge-pattern-dotted{stroke-dasharray:2;}#m3501ac89cd3d6c5d .marker{fill:#333333;stroke:#333333;}#m3501ac89cd3d6c5d .marker.cross{stroke:#333333;}#m3501ac89cd3d6c5d svg{font-family:var(--font-mermaid);font-size:16px;}#m3501ac89cd3d6c5d p{margin:0;}#m3501ac89cd3d6c5d .label{font-family:var(--font-mermaid);color:#333;}#m3501ac89cd3d6c5d .cluster-label text{fill:#333;}#m3501ac89cd3d6c5d .cluster-label span{color:#333;}#m3501ac89cd3d6c5d .cluster-label span p{background-color:transparent;}#m3501ac89cd3d6c5d .label text,#m3501ac89cd3d6c5d span{fill:#333;color:#333;}#m3501ac89cd3d6c5d .node rect,#m3501ac89cd3d6c5d .node circle,#m3501ac89cd3d6c5d .node ellipse,#m3501ac89cd3d6c5d .node polygon,#m3501ac89cd3d6c5d .node path{fill:#ECECFF;stroke:#9370DB;stroke-width:1px;}#m3501ac89cd3d6c5d .rough-node .label text,#m3501ac89cd3d6c5d .node .label text,#m3501ac89cd3d6c5d .image-shape .label,#m3501ac89cd3d6c5d .icon-shape .label{text-anchor:middle;}#m3501ac89cd3d6c5d .node .katex path{fill:#000;stroke:#000;stroke-width:1px;}#m3501ac89cd3d6c5d .rough-node .label,#m3501ac89cd3d6c5d .node .label,#m3501ac89cd3d6c5d .image-shape .label,#m3501ac89cd3d6c5d .icon-shape .label{text-align:center;}#m3501ac89cd3d6c5d .node.clickable{cursor:pointer;}#m3501ac89cd3d6c5d .root .anchor path{fill:#333333!important;stroke-width:0;stroke:#333333;}#m3501ac89cd3d6c5d .arrowheadPath{fill:#333333;}#m3501ac89cd3d6c5d .edgePath .path{stroke:#333333;stroke-width:2.0px;}#m3501ac89cd3d6c5d .flowchart-link{stroke:#333333;fill:none;}#m3501ac89cd3d6c5d .edgeLabel{background-color:rgba(232,232,232, 0.8);text-align:center;}#m3501ac89cd3d6c5d .edgeLabel p{background-color:rgba(232,232,232, 0.8);}#m3501ac89cd3d6c5d .edgeLabel rect{opacity:0.5;background-color:rgba(232,232,232, 0.8);fill:rgba(232,232,232, 0.8);}#m3501ac89cd3d6c5d .labelBkg{background-color:rgba(232, 232, 232, 0.5);}#m3501ac89cd3d6c5d .cluster rect{fill:#ffffde;stroke:#aaaa33;stroke-width:1px;}#m3501ac89cd3d6c5d .cluster text{fill:#333;}#m3501ac89cd3d6c5d .cluster span{color:#333;}#m3501ac89cd3d6c5d div.mermaidTooltip{position:absolute;text-align:center;max-width:200px;padding:2px;font-family:var(--font-mermaid);font-size:12px;background:hsl(80, 100%, 96.2745098039%);border:1px solid #aaaa33;border-radius:2px;pointer-events:none;z-index:100;}#m3501ac89cd3d6c5d .flowchartTitleText{text-anchor:middle;font-size:18px;fill:#333;}#m3501ac89cd3d6c5d rect.text{fill:none;stroke-width:0;}#m3501ac89cd3d6c5d .icon-shape,#m3501ac89cd3d6c5d .image-shape{background-color:rgba(232,232,232, 0.8);text-align:center;}#m3501ac89cd3d6c5d .icon-shape p,#m3501ac89cd3d6c5d .image-shape p{background-color:rgba(232,232,232, 0.8);padding:2px;}#m3501ac89cd3d6c5d .icon-shape rect,#m3501ac89cd3d6c5d .image-shape rect{opacity:0.5;background-color:rgba(232,232,232, 0.8);fill:rgba(232,232,232, 0.8);}#m3501ac89cd3d6c5d :root{--mermaid-font-family:"trebuchet ms",verdana,arial,sans-serif;}</style><g><marker orient="auto" markerHeight="8" markerWidth="8" markerUnits="userSpaceOnUse" refY="5" refX="5" viewBox="0 0 10 10" class="marker flowchart-v2" id="m3501ac89cd3d6c5d-m3501ac89cd3d6c5d_flowchart-v2-pointEnd"><path style="stroke-width: 1; stroke-dasharray: 1, 0;" class="arrowMarkerPath" d="M 0 0 L 10 5 L 0 10 z"></path></marker><marker orient="auto" markerHeight="8" markerWidth="8" markerUnits="userSpaceOnUse" refY="5" refX="4.5" viewBox="0 0 10 10" class="marker flowchart-v2" id="m3501ac89cd3d6c5d-m3501ac89cd3d6c5d_flowchart-v2-pointStart"><path style="stroke-width: 1; stroke-dasharray: 1, 0;" class="arrowMarkerPath" d="M 0 5 L 10 10 L 10 0 z"></path></marker><marker orient="auto" markerHeight="11" markerWidth="11" markerUnits="userSpaceOnUse" refY="5" refX="11" viewBox="0 0 10 10" class="marker flowchart-v2" id="m3501ac89cd3d6c5d-m3501ac89cd3d6c5d_flowchart-v2-circleEnd"><circle style="stroke-width: 1; stroke-dasharray: 1, 0;" class="arrowMarkerPath" r="5" cy="5" cx="5"></circle></marker><marker orient="auto" markerHeight="11" markerWidth="11" markerUnits="userSpaceOnUse" refY="5" refX="-1" viewBox="0 0 10 10" class="marker flowchart-v2" id="m3501ac89cd3d6c5d-m3501ac89cd3d6c5d_flowchart-v2-circleStart"><circle style="stroke-width: 1; stroke-dasharray: 1, 0;" class="arrowMarkerPath" r="5" cy="5" cx="5"></circle></marker><marker orient="auto" markerHeight="11" markerWidth="11" markerUnits="userSpaceOnUse" refY="5.2" refX="12" viewBox="0 0 11 11" class="marker cross flowchart-v2" id="m3501ac89cd3d6c5d-m3501ac89cd3d6c5d_flowchart-v2-crossEnd"><path style="stroke-width: 2; stroke-dasharray: 1, 0;" class="arrowMarkerPath" d="M 1,1 l 9,9 M 10,1 l -9,9"></path></marker><marker orient="auto" markerHeight="11" markerWidth="11" markerUnits="userSpaceOnUse" refY="5.2" refX="-1" viewBox="0 0 11 11" class="marker cross flowchart-v2" id="m3501ac89cd3d6c5d-m3501ac89cd3d6c5d_flowchart-v2-crossStart"><path style="stroke-width: 2; stroke-dasharray: 1, 0;" class="arrowMarkerPath" d="M 1,1 l 9,9 M 10,1 l -9,9"></path></marker><g class="root"><g class="clusters"></g><g class="edgePaths"></g><g class="edgeLabels"></g><g class="nodes"><g transform="translate(127.15625, 53.49520492553711)" id="flowchart-F-474" class="node default"><g transform="translate(0,-6.75)" class="basic label-container"><path style="" fill="#ECECFF" stroke-width="0" stroke="none" d="M-119.15625 -28.75 C-119.15625 -11.46581251797405, -119.15625 5.818374964051898, -119.15625 38.75 C-119.15625 38.75, -119.15625 38.75, -119.15625 38.75 C-117.4151171525596 39.26662339069567, -115.6739843051192 39.78324678139134, -114.59 40.1048831504914 C-113.60540022233836 40.3940803656726, -112.62080044467673 40.6832775808538, -110.02375 41.44608473694449 C-108.93697798539782 41.75881247027324, -107.85020597079563 42.07154020360199, -105.4575 42.76006135128997 C-104.23365593700827 43.10137967457196, -103.00981187401652 43.44269799785394, -100.89125 44.033544502302234 C-99.62462046135177 44.37199570913725, -98.35799092270354 44.71044691597227, -96.325 45.25367460037316 C-94.6004628445343 45.68967846205341, -92.87592568906861 46.125682323733656, -91.75875 46.40813081321121 C-90.49228352864374 46.706875357960776, -89.22581705728747 47.00561990271035, -87.1925 47.4852554811875 C-85.47625066946406 47.85694494888643, -83.76000133892815 48.22863441658535, -82.62625 48.47417183598674 C-81.21426982554024 48.749601740597775, -79.80228965108047 49.02503164520881, -78.06 49.364893833844356 C-76.6158655953982 49.612696121088256, -75.17173119079641 49.860498408332155, -73.49375 50.1484269942772 C-72.23846838763347 50.33218186745487, -70.98318677526694 50.51593674063255, -68.92750000000001 50.816859226042055 C-67.1081226855371 51.034639237291834, -65.28874537107417 51.25241924854162, -64.36125000000001 51.36344072316426 C-63.335824644266935 51.45758142945167, -62.31039928853386 51.55172213573908, -59.794999999999995 51.782652124249196 C-58.107765377786 51.888923656033086, -56.42053075557201 51.99519518781697, -55.22874999999999 52.07026024680622 C-54.17672066389203 52.10553345980891, -53.124691327784056 52.14080667281159, -50.66250000000001 52.22336083378167 C-49.18132486346408 52.22889046136879, -47.700149726928146 52.234420088955915, -46.09625 52.24040788064795 C-44.77488071205347 52.20592028439115, -43.453511424106956 52.17143268813434, -41.53 52.12122924690479 C-40.35551009750734 52.05584598174566, -39.181020195014675 51.990462716586535, -36.963750000000005 51.8670283943481 C-35.41635114712641 51.735999366563284, -33.868952294252814 51.60497033877847, -32.397499999999994 51.48037223455367 C-31.338807636942065 51.360920661797515, -30.280115273884135 51.24146908904136, -27.831249999999997 50.96516520829126 C-26.1531456983909 50.73049507873016, -24.475041396781805 50.49582494916905, -23.265 50.326609858614304 C-22.04630175544517 50.124984374181004, -20.827603510890338 49.923358889747696, -18.698750000000004 49.57115429575684 C-17.682317801022656 49.3786688687608, -16.665885602045307 49.18618344176475, -14.132499999999993 48.706427084335346 C-12.816196632843571 48.428171615095785, -11.499893265687147 48.149916145856224, -9.56625000000001 47.7411602103624 C-7.905483522564362 47.35706650306324, -6.244717045128714 46.97297279576408, -5 46.68510090594839 C-3.783852508519969 46.382495529198614, -2.5677050170399376 46.07989015244883, -0.4337499999999892 45.548913222082774 C0.5654095630637088 45.285276696659125, 1.5645691261274068 45.02164017123547, 4.132500000000007 44.34407034340934 C5.784383932517372 43.887771756646245, 7.436267865034735 43.43147316988315, 8.698750000000018 43.082738732397324 C10.219704886179011 42.64803343489486, 11.740659772358006 42.213328137392395, 13.264999999999986 41.77765527281665 C14.561751153172107 41.398347468417846, 15.85850230634423 41.01903966401904, 17.831249999999983 40.44199865311812 C19.07968303835259 40.07215288024385, 20.3281160767052 39.70230710736958, 22.397500000000008 39.08925628848505 C23.327450716157973 38.8130625727409, 24.257401432315937 38.53686885699673, 26.963750000000005 37.733088125372916 C28.514506875936835 37.276003475546204, 30.065263751873665 36.81891882571949, 31.53 36.38718870383378 C33.16393442797775 35.914125161799134, 34.79786885595549 35.44106161976449, 36.09625 35.06514887051612 C37.41137109428944 34.69510617204811, 38.72649218857889 34.325063473580116, 40.662499999999994 33.78031853875685 C41.69418488537778 33.50136616099376, 42.725869770755565 33.22241378323068, 45.22874999999999 32.54567188160992 C46.3820152133876 32.24966931659445, 47.5352804267752 31.95366675157898, 49.79499999999999 31.373676319087373 C51.29975857619216 31.01200380262852, 52.80451715238434 30.650331286169667, 54.36125000000001 30.276166622575545 C56.182596119073494 29.87253230460877, 58.003942238146976 29.468897986641995, 58.92750000000001 29.264225407715536 C60.67777701028389 28.913056810242526, 62.42805402056777 28.561888212769517, 63.493750000000006 28.348071222526844 C64.87106773552793 28.10341438992974, 66.24838547105587 27.85875755733263, 68.06 27.536955360856535 C69.30643477726295 27.34645538278842, 70.5528695545259 27.15595540472031, 72.62625 26.839068443128134 C74.16072801155106 26.644963658524382, 75.69520602310212 26.450858873920634, 77.1925 26.26145770773482 C78.70092042869324 26.112308049171094, 80.20934085738648 25.96315839060737, 81.75874999999999 25.80995584826543 C83.02858217532497 25.720734934556486, 84.29841435064996 25.63151402084754, 86.32500000000002 25.4891221151627 C87.26217734054664 25.45075744824906, 88.19935468109327 25.412392781335424, 90.89125000000001 25.302196276567173 C92.66266411160817 25.282360948928844, 94.43407822321632 25.262525621290514, 95.45749999999998 25.25106590324848 C96.6022247008959 25.27242024391162, 97.74694940179181 25.293774584574756, 100.02374999999998 25.336247307979885 C101.82881093359255 25.423464620218844, 103.63387186718514 25.5106819324578, 104.59 25.55688033182939 C105.50705467439857 25.627946510671713, 106.42410934879716 25.699012689514035, 109.15625 25.910737030015426 C109.15625 24.180121718263106, 109.15625 22.449506406510785, 109.15625 20.910737030015426 C110.25900210945439 20.910737030015426, 111.36175421890877 20.910737030015426, 114.15625 20.910737030015426 C114.15625 19.703286225099546, 114.15625 18.495835420183663, 114.15625 15.910737030015426 C116.09520872887485 15.910737030015426, 118.0341674577497 15.910737030015426, 119.15625 15.910737030015426 C119.15625 -3.067856709191773, 119.15625 -22.04645044839897, 119.15625 -38.75 C52.04834151709339 -38.75, -15.059566965813218 -38.75, -109.15625 -38.75 C-109.15625 -36.822655610746914, -109.15625 -34.895311221493834, -109.15625 -33.75 C-110.47780201385706 -33.75, -111.79935402771413 -33.75, -114.15625 -33.75 C-114.15625 -32.16384725644188, -114.15625 -30.577694512883774, -114.15625 -28.75 C-115.71307797904542 -28.75, -117.26990595809085 -28.75, -119.15625 -28.75"></path><path style="" fill="none" stroke-width="1.3" stroke="#9370DB" d="M-119.15625 -28.75 C-119.15625 -10.367648113387894, -119.15625 8.014703773224213, -119.15625 38.75 M-119.15625 -28.75 C-119.15625 -11.775500939870383, -119.15625 5.198998120259233, -119.15625 38.75 M-119.15625 38.75 C-119.15625 38.75, -119.15625 38.75, -119.15625 38.75 M-119.15625 38.75 C-119.15625 38.75, -119.15625 38.75, -119.15625 38.75 M-119.15625 38.75 C-118.21932725099913 39.028000732753, -117.28240450199824 39.30600146550599, -114.59 40.1048831504914 M-119.15625 38.75 C-117.45615362155445 39.25444718037062, -115.75605724310888 39.75889436074124, -114.59 40.1048831504914 M-114.59 40.1048831504914 C-112.99193850083853 40.57426669671094, -111.39387700167705 41.04365024293048, -110.02375 41.44608473694449 M-114.59 40.1048831504914 C-113.32664219563839 40.47595733422372, -112.06328439127677 40.84703151795604, -110.02375 41.44608473694449 M-110.02375 41.44608473694449 C-108.29185006343806 41.94445342350979, -106.5599501268761 42.4428221100751, -105.4575 42.76006135128997 M-110.02375 41.44608473694449 C-108.82469690309192 41.79112229045027, -107.62564380618382 42.136159843956044, -105.4575 42.76006135128997 M-105.4575 42.76006135128997 C-104.12762941012203 43.130949451861845, -102.79775882024406 43.50183755243373, -100.89125 44.033544502302234 M-105.4575 42.76006135128997 C-104.31422751991273 43.07890903602189, -103.17095503982546 43.39775672075381, -100.89125 44.033544502302234 M-100.89125 44.033544502302234 C-99.36898089539437 44.44030417421963, -97.84671179078876 44.84706384613702, -96.325 45.25367460037316 M-100.89125 44.033544502302234 C-99.18015969141956 44.49075836181857, -97.46906938283912 44.9479722213349, -96.325 45.25367460037316 M-96.325 45.25367460037316 C-95.00541964369748 45.58729578639506, -93.68583928739497 45.920916972416954, -91.75875 46.40813081321121 M-96.325 45.25367460037316 C-94.57793243848529 45.695374682637265, -92.83086487697057 46.13707476490138, -91.75875 46.40813081321121 M-91.75875 46.40813081321121 C-90.48873616662735 46.70771213893731, -89.2187223332547 47.00729346466341, -87.1925 47.4852554811875 M-91.75875 46.40813081321121 C-90.71147561288933 46.655170523366515, -89.66420122577864 46.90221023352182, -87.1925 47.4852554811875 M-87.1925 47.4852554811875 C-86.217363536228 47.69644155229294, -85.242227072456 47.90762762339838, -82.62625 48.47417183598674 M-87.1925 47.4852554811875 C-86.14127937608288 47.712919158711486, -85.09005875216577 47.94058283623547, -82.62625 48.47417183598674 M-82.62625 48.47417183598674 C-80.9732032342275 48.796625735304765, -79.320156468455 49.1190796346228, -78.06 49.364893833844356 M-82.62625 48.47417183598674 C-81.65664542607959 48.66330912001943, -80.6870408521592 48.85244640405212, -78.06 49.364893833844356 M-78.06 49.364893833844356 C-76.8675162196488 49.569514821565896, -75.6750324392976 49.774135809287436, -73.49375 50.1484269942772 M-78.06 49.364893833844356 C-76.56592770769325 49.62126507613426, -75.07185541538651 49.87763631842415, -73.49375 50.1484269942772 M-73.49375 50.1484269942772 C-72.47966694615648 50.2968739253203, -71.46558389231295 50.445320856363395, -68.92750000000001 50.816859226042055 M-73.49375 50.1484269942772 C-72.54853568136289 50.28679254949269, -71.60332136272577 50.42515810470817, -68.92750000000001 50.816859226042055 M-68.92750000000001 50.816859226042055 C-67.26275272281747 51.016129975364265, -65.59800544563493 51.215400724686475, -64.36125000000001 51.36344072316426 M-68.92750000000001 50.816859226042055 C-67.9016774415182 50.93965049454393, -66.87585488303641 51.06244176304582, -64.36125000000001 51.36344072316426 M-64.36125000000001 51.36344072316426 C-63.215893362864136 51.46859189986191, -62.07053672572826 51.573743076559566, -59.794999999999995 51.782652124249196 M-64.36125000000001 51.36344072316426 C-62.868720872250556 51.500464588875495, -61.3761917445011 51.63748845458673, -59.794999999999995 51.782652124249196 M-59.794999999999995 51.782652124249196 C-58.018647622307974 51.89453679380249, -56.24229524461595 52.00642146335578, -55.22874999999999 52.07026024680622 M-59.794999999999995 51.782652124249196 C-58.22985442727817 51.8812338006136, -56.66470885455634 51.979815476978004, -55.22874999999999 52.07026024680622 M-55.22874999999999 52.07026024680622 C-53.976594353920305 52.11224344185674, -52.72443870784061 52.154226636907254, -50.66250000000001 52.22336083378167 M-55.22874999999999 52.07026024680622 C-53.964575628056394 52.11264641453332, -52.7004012561128 52.155032582260425, -50.66250000000001 52.22336083378167 M-50.66250000000001 52.22336083378167 C-49.536027509790685 52.22756626040837, -48.409555019581354 52.23177168703507, -46.09625 52.24040788064795 M-50.66250000000001 52.22336083378167 C-48.83748762391531 52.23017409882556, -47.01247524783061 52.236987363869446, -46.09625 52.24040788064795 M-46.09625 52.24040788064795 C-45.16149456929476 52.216010864471556, -44.22673913858953 52.19161384829517, -41.53 52.12122924690479 M-46.09625 52.24040788064795 C-44.684857118489795 52.20357067828426, -43.27346423697959 52.166733475920566, -41.53 52.12122924690479 M-41.53 52.12122924690479 C-40.38172706169765 52.05730546702321, -39.23345412339531 51.99338168714164, -36.963750000000005 51.8670283943481 M-41.53 52.12122924690479 C-40.223566840632806 52.04850076665963, -38.91713368126561 51.97577228641446, -36.963750000000005 51.8670283943481 M-36.963750000000005 51.8670283943481 C-35.49783051257079 51.74289879137472, -34.03191102514158 51.61876918840134, -32.397499999999994 51.48037223455367 M-36.963750000000005 51.8670283943481 C-35.35776189670224 51.73103820706167, -33.75177379340449 51.59504801977524, -32.397499999999994 51.48037223455367 M-32.397499999999994 51.48037223455367 C-30.750278882525077 51.2945173441007, -29.10305776505016 51.10866245364772, -27.831249999999997 50.96516520829126 M-32.397499999999994 51.48037223455367 C-31.316338409400892 51.35838547342546, -30.235176818801794 51.236398712297245, -27.831249999999997 50.96516520829126 M-27.831249999999997 50.96516520829126 C-26.91506980016111 50.837044372183904, -25.99888960032222 50.70892353607655, -23.265 50.326609858614304 M-27.831249999999997 50.96516520829126 C-26.693387679947847 50.806043812908804, -25.555525359895693 50.64692241752635, -23.265 50.326609858614304 M-23.265 50.326609858614304 C-22.191657091973358 50.149032443728494, -21.118314183946715 49.97145502884268, -18.698750000000004 49.57115429575684 M-23.265 50.326609858614304 C-21.582118012419002 50.048188274349165, -19.899236024838004 49.769766690084026, -18.698750000000004 49.57115429575684 M-18.698750000000004 49.57115429575684 C-17.7390054278655 49.38940400886086, -16.779260855730996 49.207653721964874, -14.132499999999993 48.706427084335346 M-18.698750000000004 49.57115429575684 C-17.115710957862717 49.2713684897938, -15.532671915725434 48.97158268383076, -14.132499999999993 48.706427084335346 M-14.132499999999993 48.706427084335346 C-12.490579009044843 48.35933878600524, -10.848658018089694 48.01225048767513, -9.56625000000001 47.7411602103624 M-14.132499999999993 48.706427084335346 C-12.701297259693764 48.403882853258004, -11.270094519387532 48.10133862218066, -9.56625000000001 47.7411602103624 M-9.56625000000001 47.7411602103624 C-8.538628263305414 47.50349703019171, -7.511006526610817 47.265833850021025, -5 46.68510090594839 M-9.56625000000001 47.7411602103624 C-7.849157960837174 47.3440398108019, -6.132065921674338 46.946919411241396, -5 46.68510090594839 M-5 46.68510090594839 C-3.2341943054779394 46.24572796705636, -1.4683886109558792 45.80635502816433, -0.4337499999999892 45.548913222082774 M-5 46.68510090594839 C-3.387714493533708 46.28392730938183, -1.7754289870674165 45.88275371281528, -0.4337499999999892 45.548913222082774 M-0.4337499999999892 45.548913222082774 C1.101590508527978 45.14380091372498, 2.6369310170559452 44.73868860536719, 4.132500000000007 44.34407034340934 M-0.4337499999999892 45.548913222082774 C1.1059181664435946 45.14265902534371, 2.6455863328871785 44.736404828604655, 4.132500000000007 44.34407034340934 M4.132500000000007 44.34407034340934 C5.725768557111326 43.90396303524268, 7.319037114222646 43.46385572707602, 8.698750000000018 43.082738732397324 M4.132500000000007 44.34407034340934 C5.681321579789162 43.91624058848887, 7.230143159578317 43.48841083356839, 8.698750000000018 43.082738732397324 M8.698750000000018 43.082738732397324 C9.927148591792262 42.731649176652404, 11.155547183584506 42.380559620907476, 13.264999999999986 41.77765527281665 M8.698750000000018 43.082738732397324 C10.406287070687219 42.5947062358028, 12.113824141374419 42.10667373920829, 13.264999999999986 41.77765527281665 M13.264999999999986 41.77765527281665 C14.848004839866732 41.31461647875526, 16.431009679733478 40.851577684693865, 17.831249999999983 40.44199865311812 M13.264999999999986 41.77765527281665 C14.502420071050798 41.41570218018116, 15.739840142101611 41.053749087545654, 17.831249999999983 40.44199865311812 M17.831249999999983 40.44199865311812 C18.916078530884946 40.12062038603008, 20.00090706176991 39.799242118942054, 22.397500000000008 39.08925628848505 M17.831249999999983 40.44199865311812 C19.46478640819901 39.95806678264643, 21.09832281639804 39.47413491217474, 22.397500000000008 39.08925628848505 M22.397500000000008 39.08925628848505 C23.618005636808284 38.726768275884275, 24.83851127361656 38.364280263283504, 26.963750000000005 37.733088125372916 M22.397500000000008 39.08925628848505 C23.739182476074443 38.69077896922798, 25.080864952148882 38.2923016499709, 26.963750000000005 37.733088125372916 M26.963750000000005 37.733088125372916 C28.36991041821236 37.31862319387262, 29.77607083642472 36.90415826237232, 31.53 36.38718870383378 M26.963750000000005 37.733088125372916 C28.520267585214487 37.27430550997611, 30.07678517042897 36.8155228945793, 31.53 36.38718870383378 M31.53 36.38718870383378 C33.06281912385346 35.9434004883385, 34.59563824770691 35.49961227284321, 36.09625 35.06514887051612 M31.53 36.38718870383378 C32.96442459589723 35.97188808436119, 34.398849191794454 35.556587464888594, 36.09625 35.06514887051612 M36.09625 35.06514887051612 C37.880019957145834 34.56323991988444, 39.66378991429167 34.061330969252765, 40.662499999999994 33.78031853875685 M36.09625 35.06514887051612 C37.069580805821424 34.79127754455826, 38.04291161164285 34.51740621860041, 40.662499999999994 33.78031853875685 M40.662499999999994 33.78031853875685 C42.40140940919874 33.31014307986858, 44.14031881839749 32.8399676209803, 45.22874999999999 32.54567188160992 M40.662499999999994 33.78031853875685 C42.06062621688395 33.402285829215046, 43.458752433767906 33.02425311967324, 45.22874999999999 32.54567188160992 M45.22874999999999 32.54567188160992 C46.84879419531408 32.129863590780786, 48.468838390628164 31.714055299951657, 49.79499999999999 31.373676319087373 M45.22874999999999 32.54567188160992 C46.823377189970024 32.13638724092606, 48.41800437994006 31.727102600242198, 49.79499999999999 31.373676319087373 M49.79499999999999 31.373676319087373 C51.274905591370235 31.017977280171216, 52.75481118274048 30.662278241255056, 54.36125000000001 30.276166622575545 M49.79499999999999 31.373676319087373 C51.486186097839095 30.967195477919148, 53.177372195678196 30.560714636750923, 54.36125000000001 30.276166622575545 M54.36125000000001 30.276166622575545 C55.63899865160815 29.993000671785712, 56.91674730321628 29.70983472099588, 58.92750000000001 29.264225407715536 M54.36125000000001 30.276166622575545 C55.84335031930918 29.947713647450197, 57.32545063861835 29.619260672324845, 58.92750000000001 29.264225407715536 M58.92750000000001 29.264225407715536 C60.26501037276989 28.995872661863597, 61.60252074553978 28.72751991601166, 63.493750000000006 28.348071222526844 M58.92750000000001 29.264225407715536 C60.632836811878384 28.922073432383762, 62.33817362375677 28.579921457051984, 63.493750000000006 28.348071222526844 M63.493750000000006 28.348071222526844 C65.12136052289361 28.058954176429825, 66.7489710457872 27.76983713033281, 68.06 27.536955360856535 M63.493750000000006 28.348071222526844 C65.2979969411769 28.027577751438155, 67.1022438823538 27.707084280349466, 68.06 27.536955360856535 M68.06 27.536955360856535 C69.67044072854868 27.29082220646702, 71.28088145709737 27.04468905207751, 72.62625 26.839068443128134 M68.06 27.536955360856535 C69.52311945916301 27.31333818491923, 70.98623891832602 27.089721008981925, 72.62625 26.839068443128134 M72.62625 26.839068443128134 C73.61211653145672 26.71436062112225, 74.59798306291346 26.58965279911636, 77.1925 26.26145770773482 M72.62625 26.839068443128134 C74.24973369904427 26.633704826746197, 75.87321739808856 26.42834121036426, 77.1925 26.26145770773482 M77.1925 26.26145770773482 C78.90153687637321 26.092471487623293, 80.61057375274642 25.923485267511765, 81.75874999999999 25.80995584826543 M77.1925 26.26145770773482 C78.89753485227509 26.092867199930318, 80.60256970455018 25.92427669212581, 81.75874999999999 25.80995584826543 M81.75874999999999 25.80995584826543 C82.93630617233849 25.72721842856447, 84.11386234467699 25.644481008863504, 86.32500000000002 25.4891221151627 M81.75874999999999 25.80995584826543 C83.048233775114 25.719354174387473, 84.337717550228 25.628752500509513, 86.32500000000002 25.4891221151627 M86.32500000000002 25.4891221151627 C87.2966669817057 25.44934556648689, 88.26833396341138 25.40956901781108, 90.89125000000001 25.302196276567173 M86.32500000000002 25.4891221151627 C87.25631792321654 25.450997311703343, 88.18763584643308 25.412872508243982, 90.89125000000001 25.302196276567173 M90.89125000000001 25.302196276567173 C91.81559534225669 25.291845962321354, 92.73994068451336 25.28149564807553, 95.45749999999998 25.25106590324848 M90.89125000000001 25.302196276567173 C92.56519341444621 25.28345237255513, 94.23913682889243 25.264708468543084, 95.45749999999998 25.25106590324848 M95.45749999999998 25.25106590324848 C97.19596178661267 25.28349615061898, 98.93442357322536 25.315926397989475, 100.02374999999998 25.336247307979885 M95.45749999999998 25.25106590324848 C97.0601225354527 25.28096212855898, 98.66274507090542 25.31085835386948, 100.02374999999998 25.336247307979885 M100.02374999999998 25.336247307979885 C101.51962295761415 25.40852521083959, 103.01549591522831 25.480803113699288, 104.59 25.55688033182939 M100.02374999999998 25.336247307979885 C101.15021594460356 25.390676125416814, 102.27668188920714 25.445104942853742, 104.59 25.55688033182939 M104.59 25.55688033182939 C105.67178434584359 25.640712061754286, 106.75356869168718 25.72454379167918, 109.15625 25.910737030015426 M104.59 25.55688033182939 C106.0594808064847 25.670756187560116, 107.5289616129694 25.78463204329084, 109.15625 25.910737030015426 M109.15625 25.910737030015426 C109.15625 24.473151325353975, 109.15625 23.035565620692523, 109.15625 20.910737030015426 M109.15625 25.910737030015426 C109.15625 24.049799642141156, 109.15625 22.188862254266887, 109.15625 20.910737030015426 M109.15625 20.910737030015426 C110.30180185688893 20.910737030015426, 111.44735371377787 20.910737030015426, 114.15625 20.910737030015426 M109.15625 20.910737030015426 C111.05091153634667 20.910737030015426, 112.94557307269334 20.910737030015426, 114.15625 20.910737030015426 M114.15625 20.910737030015426 C114.15625 19.36356534620763, 114.15625 17.816393662399832, 114.15625 15.910737030015426 M114.15625 20.910737030015426 C114.15625 18.98957668988637, 114.15625 17.068416349757314, 114.15625 15.910737030015426 M114.15625 15.910737030015426 C115.96507294735223 15.910737030015426, 117.77389589470445 15.910737030015426, 119.15625 15.910737030015426 M114.15625 15.910737030015426 C115.25734656801387 15.910737030015426, 116.35844313602773 15.910737030015426, 119.15625 15.910737030015426 M119.15625 15.910737030015426 C119.15625 2.6227273672695777, 119.15625 -10.66528229547627, 119.15625 -38.75 M119.15625 15.910737030015426 C119.15625 -4.431647740266037, 119.15625 -24.7740325105475, 119.15625 -38.75 M119.15625 -38.75 C56.56833560199606 -38.75, -6.0195787960078775 -38.75, -109.15625 -38.75 M119.15625 -38.75 C59.01123586159654 -38.75, -1.1337782768069218 -38.75, -109.15625 -38.75 M-109.15625 -38.75 C-109.15625 -36.89098453565537, -109.15625 -35.03196907131074, -109.15625 -33.75 M-109.15625 -38.75 C-109.15625 -37.127453068572564, -109.15625 -35.50490613714512, -109.15625 -33.75 M-109.15625 -33.75 C-111.13361240413572 -33.75, -113.11097480827144 -33.75, -114.15625 -33.75 M-109.15625 -33.75 C-110.99899282943166 -33.75, -112.84173565886331 -33.75, -114.15625 -33.75 M-114.15625 -33.75 C-114.15625 -32.44762078576713, -114.15625 -31.145241571534253, -114.15625 -28.75 M-114.15625 -33.75 C-114.15625 -32.081555975179306, -114.15625 -30.413111950358605, -114.15625 -28.75 M-114.15625 -28.75 C-115.99622350513434 -28.75, -117.83619701026869 -28.75, -119.15625 -28.75 M-114.15625 -28.75 C-115.51937308655162 -28.75, -116.88249617310325 -28.75, -119.15625 -28.75"></path><g><path style="" fill="#ECECFF" stroke-width="0" stroke="none" d="M-114.15625 -28.75 C-28.668296099113135 -28.75, 56.81965780177373 -28.75, 109.15625 -28.75 C109.15625 -16.40637603951918, 109.15625 -4.062752079038361, 109.15625 20.910737030015426 C110.58465858151692 20.910737030015426, 112.01306716303382 20.910737030015426, 114.15625 20.910737030015426 C114.15625 6.701662644333698, 114.15625 -7.5074117413480295, 114.15625 -33.75 C31.039317631545032 -33.75, -52.077614736909936 -33.75, -114.15625 -33.75 C-114.15625 -31.894606513546652, -114.15625 -30.039213027093304, -114.15625 -28.75"></path><path style="" fill="none" stroke-width="1.3" stroke="#9370DB" d="M-114.15625 -28.75 C-60.79641292757276 -28.75, -7.43657585514552 -28.75, 109.15625 -28.75 M-114.15625 -28.75 C-46.85251631834903 -28.75, 20.451217363301936 -28.75, 109.15625 -28.75 M109.15625 -28.75 C109.15625 -13.531215800759407, 109.15625 1.6875683984811864, 109.15625 20.910737030015426 M109.15625 -28.75 C109.15625 -9.477511824410804, 109.15625 9.794976351178391, 109.15625 20.910737030015426 M109.15625 20.910737030015426 C110.84167695710684 20.910737030015426, 112.5271039142137 20.910737030015426, 114.15625 20.910737030015426 M109.15625 20.910737030015426 C110.56715941591617 20.910737030015426, 111.97806883183233 20.910737030015426, 114.15625 20.910737030015426 M114.15625 20.910737030015426 C114.15625 4.40034158757603, 114.15625 -12.110053854863366, 114.15625 -33.75 M114.15625 20.910737030015426 C114.15625 0.09476979157961551, 114.15625 -20.721197446856195, 114.15625 -33.75 M114.15625 -33.75 C38.76268889406376 -33.75, -36.630872211872486 -33.75, -114.15625 -33.75 M114.15625 -33.75 C24.668000577739818 -33.75, -64.82024884452036 -33.75, -114.15625 -33.75 M-114.15625 -33.75 C-114.15625 -32.44720616368919, -114.15625 -31.14441232737838, -114.15625 -28.75 M-114.15625 -33.75 C-114.15625 -32.013004071932905, -114.15625 -30.276008143865816, -114.15625 -28.75"></path></g></g><g transform="translate(-104.15625, -13.75)" style="" class="label"></g></g></g></g></g></svg>