<?xml version="1.0" encoding="UTF-8" standalone="no"?>
<!-- Uploaded to: SVG Repo, www.svgrepo.com, Generator: SVG Repo Mixer Tools -->

<svg
   fill="#000000"
   version="1.1"
   id="Capa_1"
   width="1312.4301"
   height="800.06555"
   viewBox="0 0 315.23586 192.16975"
   xml:space="preserve"
   sodipodi:docname="cozy.svg"
   inkscape:version="1.1.2 (0a00cf5339, 2022-02-04)"
   xmlns:inkscape="http://www.inkscape.org/namespaces/inkscape"
   xmlns:sodipodi="http://sodipodi.sourceforge.net/DTD/sodipodi-0.dtd"
   xmlns="http://www.w3.org/2000/svg"
   xmlns:svg="http://www.w3.org/2000/svg"><defs
   id="defs31"><linearGradient
   id="linearGradient1497"
   inkscape:swatch="solid"><stop
     style="stop-color:#000000;stop-opacity:1;"
     offset="0"
     id="stop1495" /></linearGradient>
		
		
		
		
		
		
		
		
		
		
		
	</defs><sodipodi:namedview
   id="namedview29"
   pagecolor="#ffffff"
   bordercolor="#666666"
   borderopacity="1.0"
   inkscape:pageshadow="2"
   inkscape:pageopacity="0.0"
   inkscape:pagecheckerboard="0"
   showgrid="false"
   inkscape:zoom="0.84065074"
   inkscape:cx="629.86919"
   inkscape:cy="468.08976"
   inkscape:window-width="2560"
   inkscape:window-height="1359"
   inkscape:window-x="0"
   inkscape:window-y="44"
   inkscape:window-maximized="1"
   inkscape:current-layer="g26" />
<g
   id="g26"
   transform="translate(179.33943,-1.0508249)">
	
<g
   id="g860"
   transform="translate(4.1720949,-2.4543242)"><path
     d="M 63.079788,152.605 H -2.0529012 c -20.2322458,0 -36.6777088,-16.55367 -36.6777088,-36.89411 0,-9.71039 3.705637,-18.879803 10.467752,-25.804214 5.896564,-6.058854 13.551279,-9.845638 21.8551556,-10.819384 C -5.4339587,70.756367 -1.6742222,63.047556 4.3575835,57.096896 11.25494,50.307733 20.370271,46.575047 29.999521,46.575047 c 9.629252,0 18.744582,3.732686 25.641939,10.521849 6.004755,5.923612 9.764496,13.578326 10.765285,21.882203 18.690483,1.677005 33.377797,17.527407 33.377797,36.758851 -0.0271,20.31338 -16.472505,36.86705 -36.704754,36.86705 z m 0.135252,-6.89736 h 0.270483 c 16.174977,0 29.347579,-13.30784 29.347579,-29.69921 0,-16.364309 -13.172602,-29.699198 -29.347579,-29.699198 h -0.297532 c -2.109781,0 -3.840885,-1.704054 -3.894982,-3.840883 C 58.941379,66.482711 45.768781,53.472403 29.97248,53.472403 c -15.796299,0 -28.9688975,13.010308 -29.32052851,28.995946 -0.0541,2.10978 -1.73110069,3.786785 -3.81383199,3.840883 -15.7963005,0.378677 -28.6443175,13.686526 -28.6443175,29.672158 0,16.36431 13.172599,29.69921 29.3475777,29.69921 h 0.5680175 z M 48.7982,113.49293 c 0.622114,0.40573 0.811454,1.27128 0.405727,1.89338 -0.270485,0.40574 -0.70326,0.62212 -1.136036,0.62212 -0.243435,0 -0.51392,-0.0812 -0.730308,-0.21638 -0.622114,-0.40574 -1.108987,-0.86555 -1.541761,-1.32538 -4.598239,4.16546 -10.386609,6.2482 -16.202028,6.2482 -5.788369,0 -11.576739,-2.08274 -16.174978,-6.22114 -0.405726,0.48687 -0.919647,0.91964 -1.514713,1.29832 -0.243437,0.16229 -0.486873,0.21638 -0.730308,0.21638 -0.459824,0 -0.8926,-0.21638 -1.136036,-0.62212 -0.4057255,-0.6221 -0.2434355,-1.48765 0.405727,-1.89338 2.326168,-1.51471 2.434361,-4.32776 2.434361,-4.43595 0.02705,-0.75736 0.649164,-1.35242 1.40652,-1.32536 0.757357,0.0271 1.352423,0.64915 1.325374,1.37945 0,0.10825 -0.0541,1.43358 -0.676211,3.00238 8.24978,7.81702 21.178943,7.78996 29.428723,-0.0541 -0.622114,-1.54174 -0.649163,-2.84008 -0.676211,-2.94828 -0.02706,-0.75735 0.595066,-1.37945 1.325374,-1.37945 0.757357,0 1.379471,0.59506 1.379471,1.35242 -0.02704,0.10824 0.08116,2.89418 2.407313,4.40889 z"
     style="fill:#000000;fill-opacity:1;stroke:#000000;stroke-width:0.270484;stroke-opacity:1"
     id="path4" /><g
     style="fill:none;stroke:#000000;stroke-opacity:1"
     id="g1207"
     transform="matrix(4.9565803,0,0,4.9565803,-159.1317,42.589353)"><path
       d="M 2.3153,12.6978 C 2.26536,12.2706 2.2404,12.057 2.2509,11.8809 2.30599,10.9577 2.98677,10.1928 3.89725,10.0309 4.07094,10 4.286,10 4.71612,10 H 15.2838 c 0.4301,0 0.6452,0 0.8189,0.0309 0.9105,0.1619 1.5913,0.9268 1.6463,1.85 0.0105,0.1761 -0.0144,0.3897 -0.0644,0.8169 l -0.4006,3.428 c -0.1809,1.5471 -1.0076,2.9456 -2.2759,3.8499 C 14.0736,20.6419 12.9546,21 11.8069,21 H 8.19303 C 7.04537,21 5.9263,20.6419 4.99182,19.9757 3.72352,19.0714 2.89681,17.6729 2.71598,16.1258 Z"
       stroke="#1c274c"
       stroke-width="1.5"
       id="path1186"
       style="stroke:#000000;stroke-opacity:1" /><path
       d="m 17,17 h 2 c 1.6569,0 3,-1.3431 3,-3 0,-1.6569 -1.3431,-3 -3,-3 h -1.5"
       stroke="#1c274c"
       stroke-width="1.5"
       id="path1188"
       style="stroke:#000000;stroke-opacity:1" /><path
       d="m 10.0002,2 c -0.55233,0.55228 -0.55233,1.44772 0,2 0.5522,0.55228 0.5522,1.44772 0,2"
       stroke="#1c274c"
       stroke-width="1.5"
       stroke-linecap="round"
       stroke-linejoin="round"
       id="path1190"
       style="stroke:#000000;stroke-opacity:1" /><path
       d="M 5.00018,7.5 5.1163,7.38388 C 5.62347,6.87671 5.68053,6.0738 5.25018,5.5 4.81983,4.9262 4.8769,4.12329 5.38407,3.61612 L 5.50018,3.5"
       stroke="#1c274c"
       stroke-width="1.5"
       stroke-linecap="round"
       stroke-linejoin="round"
       id="path1192"
       style="stroke:#000000;stroke-opacity:1" /><path
       d="M 14.5002,7.5 14.6163,7.38388 C 15.1235,6.87671 15.1805,6.0738 14.7502,5.5 14.3198,4.9262 14.3769,4.12329 14.8841,3.61612 L 15.0002,3.5"
       stroke="#1c274c"
       stroke-width="1.5"
       stroke-linecap="round"
       stroke-linejoin="round"
       id="path1194"
       style="stroke:#000000;stroke-opacity:1" /></g></g></g><g
   inkscape:groupmode="layer"
   id="layer1"
   inkscape:label="Layer 1" />
</svg>
