<?xml version="1.0" encoding="UTF-8" standalone="no"?>
<!-- Uploaded to: SVG Repo, www.svgrepo.com, Generator: SVG Repo Mixer Tools -->

<svg
   fill="#000000"
   version="1.1"
   id="Capa_1"
   width="1312.4301"
   height="800.06555"
   viewBox="0 0 315.23586 192.16975"
   xml:space="preserve"
   sodipodi:docname="knowledge-graph-svgrepo-com.svg"
   inkscape:version="1.1.2 (0a00cf5339, 2022-02-04)"
   xmlns:inkscape="http://www.inkscape.org/namespaces/inkscape"
   xmlns:sodipodi="http://sodipodi.sourceforge.net/DTD/sodipodi-0.dtd"
   xmlns="http://www.w3.org/2000/svg"
   xmlns:svg="http://www.w3.org/2000/svg"><defs
   id="defs31"><linearGradient
   id="linearGradient1497"
   inkscape:swatch="solid"><stop
     style="stop-color:#000000;stop-opacity:1;"
     offset="0"
     id="stop1495" /></linearGradient>
		
		
		
		
		
		
		
		
		
		
		
	</defs><sodipodi:namedview
   id="namedview29"
   pagecolor="#ffffff"
   bordercolor="#666666"
   borderopacity="1.0"
   inkscape:pageshadow="2"
   inkscape:pageopacity="0.0"
   inkscape:pagecheckerboard="0"
   showgrid="false"
   inkscape:zoom="0.84065074"
   inkscape:cx="629.86919"
   inkscape:cy="468.08976"
   inkscape:window-width="2560"
   inkscape:window-height="1359"
   inkscape:window-x="0"
   inkscape:window-y="44"
   inkscape:window-maximized="1"
   inkscape:current-layer="g26" />
<g
   id="g26"
   transform="translate(179.33943,-1.0508249)">
	
<g
   id="g1293"
   transform="matrix(5.9907831,0,0,5.9907831,-93.610896,25.246302)"><path
     d="m 3.5,12 c 0.015,0 0.028,-0.004 0.042,-0.004 l 0.94,4.226 a 2.497,2.497 0 1 0 3.345,3.173 l 7.182,1.197 a 2.491,2.491 0 1 0 3.527,-2.36 L 20.438,9.994 C 20.459,9.994 20.478,10 20.5,10 A 2.5,2.5 0 1 0 18.47,6.05 L 13.94,4.038 A 2.5,2.5 0 1 0 9.248,4.566 L 5.151,7.637 A 2.495,2.495 0 1 0 3.5,12 Z m 1.018,-0.222 a 2.51,2.51 0 0 0 1.26,-1.26 l 4.226,0.94 C 10.004,11.472 10,11.485 10,11.5 a 2.484,2.484 0 0 0 0.416,1.377 l -3.54,3.54 A 2.483,2.483 0 0 0 5.5,16 c -0.014,0 -0.028,0.004 -0.042,0.004 z m 7.184,-2.635 a 2.501,2.501 0 0 0 -1.48,1.339 L 5.996,9.542 C 5.996,9.528 6,9.515 6,9.5 A 2.472,2.472 0 0 0 5.753,8.435 L 9.849,5.363 A 2.477,2.477 0 0 0 11.306,5.98 Z M 14,11 v 1 a 1,1 0 0 1 -1,1 h -1 a 1,1 0 0 1 -1,-1 v -1 a 1,1 0 0 1 1,-1 h 1 a 1,1 0 0 1 1,1 z M 15.173,19.605 7.99,18.408 A 2.483,2.483 0 0 0 7.583,17.123 l 3.54,-3.54 a 2.405,2.405 0 0 0 2.123,0.29 l 2.632,4.74 a 2.494,2.494 0 0 0 -0.706,0.992 z M 6,20 H 5 A 1,1 0 0 1 4,19 v -1 a 1,1 0 0 1 1,-1 h 1 a 1,1 0 0 1 1,1 v 1 a 1,1 0 0 1 -1,1 z m 13,0 v 1 a 1,1 0 0 1 -1,1 h -1 a 1,1 0 0 1 -1,-1 v -1 a 1,1 0 0 1 1,-1 h 1 a 1,1 0 0 1 1,1 z M 17.562,18.006 C 17.542,18.006 17.522,18 17.5,18 a 2.466,2.466 0 0 0 -0.747,0.127 l -2.632,-4.74 a 2.411,2.411 0 0 0 0.784,-2.53 l 3.638,-1.82 a 2.502,2.502 0 0 0 0.92,0.731 z M 20,6 h 1 a 1,1 0 0 1 1,1 V 8 A 1,1 0 0 1 21,9 H 20 A 1,1 0 0 1 19,8 V 7 a 1,1 0 0 1 1,-1 z m -1.939,0.963 a 2.301,2.301 0 0 0 0.034,1.18 l -3.638,1.82 A 2.483,2.483 0 0 0 12.694,9.02 L 12.298,5.857 A 2.499,2.499 0 0 0 13.529,4.949 Z M 10,4 V 3 a 1,1 0 0 1 1,-1 h 1 a 1,1 0 0 1 1,1 V 4 A 1,1 0 0 1 12,5 H 11 A 1,1 0 0 1 10,4 Z M 2,9 A 1,1 0 0 1 3,8 h 1 a 1,1 0 0 1 1,1 v 1 A 1,1 0 0 1 4,11 H 3 A 1,1 0 0 1 2,10 Z"
     id="path1281" /><path
     fill="none"
     d="M 0,0 H 24 V 24 H 0 Z"
     id="path1283" /></g></g><g
   inkscape:groupmode="layer"
   id="layer1"
   inkscape:label="Layer 1" />
</svg>
